<svg height="40" viewBox="0 0 32 40" width="32" xmlns="http://www.w3.org/2000/svg"><g fill="none" fill-rule="evenodd"><g fill-rule="nonzero"><path d="m15.732243 3.61059006c2.502371-.01983819 5.3767768.28793723 8.3170345 1.27474573 0 0 .3720349.22672222-.092868.32024514 0 0-1.1628202.11336112-.3939856 1.0281853l3.6145358-.52202792-.6844091-2.60730562s.1165071-.9369296-.2093752-1.09676877c0 0-4.284874-2.01612741-10.548681-2.00766392h-.0354587c-6.26549557-.01016391-10.55093242 2.0059635-10.55093242 2.0059635-.32531948.15983917-.20881233 1.09676877-.20881233 1.09676877l-.68440914 2.60730562 3.61453578.52316154c.76714611-.91425738-.39398552-1.0281853-.39398552-1.0281853-.46490292-.0912557-.09286802-.32024515-.09286802-.32024515 2.93800635-.98624169 5.81297505-1.29401711 8.31534595-1.27417892" fill="#999"/><path d="m2.35266133 6.58810805-.08996654-.01696981c-.0123704 0-1.1633798-.22626408-1.90391688-.36937611 1.0221833-.86647947 2.11691596-1.64243739 3.27197057-2.31920682.39758718-.23311449.80692215-.44533341 1.22635638-.63580206.01656398.5714727.0972968 1.13922976.24066049 1.69245532.12651545.48873041.49312909.73535826 1.09028199.73535826.29694634-.00989198.59231688-.04776839.88223438-.11313204.10571068-.02036377.20467387-.03959622.28733063-.05147508.07797907-.01196447.1567204-.01820322.23559987-.01866679.29239126 0 .40541172.09616224.42790336.13179883-.01387184.0865798-.03397984.17203099-.06016513.25567841-.05960283.19175881-.10683526.23474898-.11245817.24040558-2.53536953.93560198-4.97908564 2.18005442-5.62740701 2.5171879z" fill="#fff"/><path d="m4.78726442 3.43430352c.02623048.53147521.10563235 1.05885307.23697669 1.57397132.06083624.27716185.23315462.5157125.4750765.65767681.19092909.1096128.42453644.1632774.71486097.1632774.30328064-.0093617.60503165-.04758873.9012976-.11418.10388789-.0205524.20216021-.0393921.28077807-.051381.07289131-.01094552.14644925-.01666862.22013001-.017127.1830673 0 .27516251.0411048.31503299.0667953-.00842334.0428175-.02246224.1050456-.04267826.17127-.01806211.07096885-.04545053.13913899-.08142564.20266951-1.53080204.57090001-3.01331025 1.25255461-3.9870486 1.72354712-.63343533.30600241-1.14220519.56576191-1.45162262.72675571l.11568056-1.79376782.01123112-.18154621-.17969796-.0348249c-.01123112 0-.96138411-.1872552-1.68916087-.331122.51943943-.43388401 1.04674064-.84093571 1.57235719-1.21316252.50876986-.3602379 1.01697817-.68850541 1.51058602-.97680991.47451494-.2768865.84233421-.46299991 1.07818779-.57090001m.20272177-.3174204s-2.06034948.81124891-4.82657503 3.19875274c.71373785.1421541 2.10864331.41447341 2.10864331.41447341l-.13645815 2.16485283s2.80778071-1.51745222 5.77728958-2.62614004c.1330888-.0530937.23753824-.53664601.23753824-.60572491 0-.05709-.13589658-.22836-.53235522-.22836-.08383418.00036423-.16753431.00685113-.25045403.0194106-.28639364.0416757-.73563855.1644192-1.15287476.1644192-.44475246.0022836-.85412689-.137016-.98777725-.66281491-.15599759-.60053703-.23582429-1.21888794-.23753825-1.84001072" fill="#20603b"/><path d="m8.86527142 1.80211021c.33861844-.0634216.67723687-.12299946 1.01585531-.17873359.01354474.086484.02088147.12914943.03442621.21505687-.24418152.04035919-.48873928.08244807-.73367328.12626663l.06941678.37822333c.22574562-.04151232.4537487-.07994965.68400924-.11531199l.03386184.20756158c-.22574562.03843733-.45149125.07687466-.67723687.11531199l.10666481.58117244c-.10779354.01960303-.16197249.02940455-.26920166.05016071l-.26412238-1.37855485" fill="#fff"/><path d="m10.1743709 2.31910568c-.0179886-.09947834-.012584-.20169083.0157988-.29879372.0270859-.09122936.0749423-.17518155.1399328-.24547736.0698685-.07385318.1533512-.13397365.246011-.17716579.1051924-.04809519.2172891-.07994066.3323404-.09441437.1159299-.01508465.2335206-.01264992.3487035.00721992.1022784.01909854.2000527.05676501.2883293.11107573.082138.05149754.1513854.12060602.202564.20215783.1643515.26002067.1317774.59610606-.0795585.82084965-.0692841.07300543-.1517469.13270369-.2431897.17605504-.2042368.09484322-.4335722.12417667-.6556529.08386217-.1001-.01989957-.1956935-.0575361-.2821226-.11107573-.0817558-.05142831-.1520202-.11869895-.2065138-.1977148-.0566987-.08345292-.0937141-.17833246-.1083351-.27768933m.301307-.04276415c.0094776.06868059.0328874.13478461.0688379.19438253.0339407.05529245.0790755.10312078.1325976.1405108.0546101.038193.1163582.0653731.181687.07997452.1447953.03087069.2959903.01123756.4276978-.05553786.0596185-.03041121.1123931-.07234528.1551675-.12329407.0408877-.04901305.0712195-.10570007.0891507-.16661359.0201887-.06752778.0259522-.13843886.0169274-.208267-.007658-.06639363-.0287629-.13060201-.062067-.18882874-.0326253-.05582793-.0766151-.10442065-.1292122-.14273231-.0552118-.03977473-.1179431-.06828719-.1845081-.08386218-.1500586-.03328732-.3072288-.01363034-.444061.05553786-.0594447.03186544-.1118173.0751067-.154039.12718172-.0404264.05015061-.0698243.10802254-.0863295.16994586-.0180511.06567443-.0220856.13431727-.0118491.20160246" fill="#fff"/><path d="m12.0470896 1.41618371c.1843172-.0173224.3688229-.03356214.553517-.04871924.073232-.00588828.1468871-.00498185.2199368.00270662.0669428.00630268.1323056.02332023.1933634.05034322.0552352.02464014.1033637.06180134.1402168.10826499.0381527.05062766.0599713.11085101.0627583.17322398.0096591.08674513-.0188125.17342723-.0785892.23926563-.0681336.06908811-.1557221.11778731-.252164.14020316.1549169.1836896.3081376.3682814.4596622.55377542l-.3290571.02273564c-.1345629-.17719369-.270445-.35330474-.4076463-.52833314l-.2024097.0173224.056539.55539939-.2725181.02490095c-.0474928-.43666879-.095174-.87351802-.1430437-1.31054769m.5682171.51967194c.0399152-.00312533.0795761-.00873084.118732-.01678107.0367345-.00704418.0721744-.0192668.1051626-.03626877.0298822-.01505845.055199-.03724666.0735007-.06441767.0194753-.02965522.0276634-.06483739.023181-.09960379-.0012234-.03168818-.0140301-.06195887-.036185-.08552934-.0219575-.02191175-.0488313-.03875655-.0785892-.04926057-.0335043-.01205066-.0688293-.01881494-.1045972-.02002902-.0376467-.00252145-.0754314-.00252145-.113078 0l-.254991.021653.0373157.36864228.2261561-.0194877" fill="#fff"/><path d="m13.7026157 1.47308715c-.157654.00876233-.3147587.01861994-.4724127.02847755-.0054932-.08269441-.0087891-.1237678-.0142822-.20646221.4086919-.02628697.8175669-.04673239 1.2266251-.06133626.0027466.08324206.0043945.12431545.0071411.20700986-.157654.00547645-.315308.01204819-.472962.01861994.0186768.37531946.0369873.75027382.0549317 1.12486308-.1060182.00492881-.159302.00711939-.2653202.01314349-.0216065-.37458927-.0428467-.74936108-.0637208-1.12431545" fill="#fff"/><path d="m14.7094273 1.17552386.2935581-.00669269c.0105681.45250046.0209405.90481502.0311172 1.35694367-.1139006 0-.1702637.00334635-.2841643.00669269z" fill="#fff"/><path d="m15.2292284 1.88032732c-.003168-.10156365.0171752-.20250541.0594884-.29517805.040843-.0862553.1006399-.16249232.1750658-.22319701.0802503-.06450299.172125-.11353205.2708138-.14452007.1110707-.03331383.226665-.04968523.3427663-.04854535.1174027.00127157.2339294.02008557.3455992.05579925.098383.03248848.1898148.08262131.2696807.14786802.0734394.06244462.1315511.14047275.1699668.22821895.040369.09351201.0587678.19479753.0538228.29629404-.0040483.19856054-.0969441.38521998-.2538171.51000518-.0797753.06267282-.1703593.11068253-.2674144.14173011-.1077714.03329478-.2201917.04967699-.333135.04854535-.1120381-.00123706-.2231581-.02007362-.329169-.05579926-.0956261-.0328935-.1841966-.08303758-.2611823-.14786802-.0735834-.06163888-.1333869-.13763837-.1756324-.22319702-.0438244-.09065009-.0666587-.18975513-.0668536-.29015612m.3036709 0c-.0002369.06874227.013438.13684214.0402286.20031933.025917.0599864.06455.1138258.1133112.15791188.0491451.04557797.106891.08121841.1699668.1049026.1393942.04998628.2919803.05136499.4322822.00390595.0627524-.02278592.1204597-.05726585.1699668-.10155464.0482025-.04391602.0867647-.09708719.1133112-.15623791.0279264-.06285805.0427609-.13059651.0436248-.19920334.0025795-.06708173-.0089954-.13396129-.0339933-.19641337-.0245369-.06132264-.0622206-.11670842-.1104784-.16237583-.0486639-.04700294-.1064789-.08382488-.1699668-.10825055-.1443615-.05352909-.3032825-.05511009-.4487124-.00446394-.0630889.02391535-.120826.05973992-.1699668.10546058-.0473081.04450589-.0849007.09804878-.1104784.1573539-.0258175.0621301-.038725.12872768-.0379593.19585538" fill="#fff"/><path d="m17.2322553 1.23376623c.1846946.00710175.3692012.0155117.5535197.02522988.0731134.00382975.1456781.01472058.2166683.0325185.065025.01577452.1269838.04210585.1833781.07793227.050877.03278849.0929116.07744384.1224401.13007401.030332.05691037.0427186.12157648.0355472.18557972-.0029211.09053631-.0438435.17572538-.1128481.23491815-.0773156.06214578-.1708897.10104993-.2697069.11213276.1252614.2093145.24883.41937654.3707059.63018614l-.3289521-.02186589c-.1060771-.19959632-.2132828-.39919264-.3227454-.59710697l-.2025623-.01009195-.028212.57524109-.2725281-.01177395c.018808-.45413769.0376161-.90846228.0564241-1.36297376m.4824254.61056291c.0400209.00252152.0801623.00252152.1201832 0 .0372093-.00213265.073901-.00968895.1088984-.02242655.0317599-.01152277.0600899-.03080391.0823791-.05606639.0236892-.02778798.0370374-.06282761.0378041-.09923749.0034885-.03275762-.0046981-.0656933-.0231339-.0930702-.0184775-.02526978-.0423755-.0461437-.0699658-.06111235-.0312731-.01666653-.0649667-.02839399-.0998705-.03476116-.0372312-.00724089-.0749499-.01173844-.1128481-.01345593l-.2533439-.01513793c-.0067709.12783136-.0131656.25547582-.0191841.3829334l.2256961.01177394" fill="#fff"/><path d="m19.1842848 1.36363636c.1061609.00994146.1592413.01546449.2654022.02651055l-.1337627 1.33712582c-.1024452-.01049376-.1534024-.01601679-.2558477-.02540595.0414028-.4462609.0826286-.89233771.1236774-1.33823042" fill="#fff"/><path d="m20.1115141 1.62544848c-.1554923-.01815823-.3111663-.03576061-.4670219-.05280711.0092641-.08393552.0136237-.12562535.0223429-.20900501.4050794.043728.8088871.09357051 1.2114233.14952752l-.0299722.20844914c-.1554923-.021864-.310803-.04280156-.465932-.06281268-.0483189.37798777-.0970011.75579026-.1460466 1.13340745-.1046303-.01334074-.1569455-.02001112-.2621208-.03224013z" fill="#fff"/><path d="m20.887963 2.2069078c.0137138-.09908394.0499726-.19385659.1060814-.27727443.0540383-.0793.1253542-.14578897.2087774-.19464665.0891701-.05113007.1873921-.08518878.289467-.10037335.1150042-.01618756.2318587-.01487828.3464575.00388185.1155853.01802859.2276725.05337626.332351.10480973.0917708.04631076.1738819.10913819.2420689.18521932.0634592.07192102.1090466.15734961.133166.24954699.0249233.09792386.0268529.20013681.0056427.29890184-.0194551.09748828-.0602751.1896445-.1196238.2700653-.0574546.07732341-.1304305.14224853-.21442.19076481-.0883733.04992322-.1850343.08409209-.2855171.10092789-.1121404.0176226-.2264175.0176226-.3385579 0-.1102381-.01704587-.2169451-.05150315-.3159873-.10203699-.0891633-.04634029-.1689167-.10836795-.2352977-.18300112-.1319946-.15044649-.1886972-.35098018-.1546081-.54678519m.300188.04270027c-.0114371.0672429-.0091353.13605092.0067711.20241033.0156866.06221069.0443128.12055444.0840752.1713556.0406481.0519287.0914975.09530231.1495297.12754624.0637178.03560077.1335144.05946808.2059561.07042771.0727498.01308738.1473127.01308738.2200626 0 .0663732-.01240175.1296327-.0374583.1862068-.073755.0546017-.03591637.1012431-.08232069.1371159-.13641902.0375822-.05749185.0630973-.12178402.075047-.18910117.0135743-.06531709.0135743-.13265685 0-.19797394-.0142457-.06249838-.041529-.12141275-.0801253-.17301925-.0411153-.05337003-.0927349-.09806602-.1517868-.13142808-.1342381-.0738703-.2906327-.09899658-.441818-.07098225-.0667483.01361563-.1300562.04019967-.1862068.07819139-.0542075.03616413-.0999821.08322991-.1342947.13808266-.0352218.05694104-.0582615.12034161-.0677115.18632842" fill="#fff"/><path d="m15.8021128 4.80576326s6.1788466 4.71080966 12.9862223 5.46742694c0 0 .9073122 20.4599326-13.0560589 22.4540825 0 0-12.97552148-.6162082-12.90568491-22.547878 0 0 4.66384364.1836119 12.97552151-5.37419989" fill="#999"/><path d="m15.8005392 5.06493506s6.0555126 4.612691 12.728291 5.35326584c0 0 .8892908 20.0318686-12.7947485 21.9843965 0 0-12.71646386-.6031369-12.64775362-22.0764004 0 0 4.57035761.1806003 12.71590072-5.26126194" fill="#fff"/><path d="m15.7690702 5.45454545s5.9164413 4.5137916 12.4353635 5.23858435c0 0 .8686282 19.6039998-12.5010581 21.5146624 0 0-12.4241337-.5898157-12.35731615-21.604269 0 0 4.46610745.1763776 12.42413375-5.14897775" fill="#999"/><path d="m14.644492 7.077922h2.142857v10.064935h-2.142857z" fill="#fff"/><path d="m11.592544 9.545455h8.311688v1.818182h-8.311688z" fill="#fff"/><path d="m7.02959846 25.7792208 9.62788074-5.50705-.8492203-1.441002-9.60532514 5.4764867s.21089536.4527893.38908502.7770997c.17818967.3243103.43757968.6944656.43757968.6944656" fill="#fff"/><path d="m20.5210291 17.9203259s-.1912299-.0659918-.1584778-.4794627c0 0 .0258847-.2919992.1584778-.4222309 0 0 .287373-.347479.2699405-.4601907 0 0 .0871627.4222308.0871627.5839984 0 0 .0084522.4321588-.1130474.6289663-.0554487.0897908-.1458205.1455832-.2440558.1506716" fill="#fff"/><path d="m10.2559336 18.1500898-.34768379-.1097414-.29450864.2064048.00525909-.3445766-.29918339-.1978756.35118987-.1029181.10927206-.3286556.211532.2808925.3669671-.0056861-.2202971.2763436z" fill="#fff"/><path d="m10.2610971 11.6233766.1952998.4878472.508002-.1537902-.264851.4551738.4384508.2963136-.5252507.0794301.0383923.5233372-.3900432-.356027-.39004314.356027.03894867-.5233372-.52525069-.0794301.43845079-.2963136-.26485099-.4551738.50800196.1537902z" fill="#fff"/><path d="m12.4694457 15.3896104.1947434.4882476.508002-.1537389-.264851.4544588.4384508.296778-.5252507.0794036.0389487.5231626-.3900432-.3564714-.3900431.3564714.0383922-.5231626-.5252507-.0794036.4384508-.296778-.2648509-.4544588.5080019.1537389z" fill="#fff"/><path d="m6.30033635 12.4675325.1948052.4878471.50816326-.1537901-.26493506.4551738.43858998.2963136-.52541744.0794301.03896104.5233372-.39016698-.3560271-.39016697.3560271.03840445-.5233372-.52486085-.0794301.43803339-.2963136-.26437848-.4551738.50760668.1537901z" fill="#fff"/><path d="m6.68994674 19.8701299.1948052.4882475.50816326-.1537388-.26493506.4544588.43858998.2967779-.52541744.0788405.03896104.5237258-.39016698-.3564715-.39016697.3564715.03840445-.5237258-.52486085-.0788405.43803339-.2967779-.26493506-.4544588.50816326.1537388z" fill="#fff"/><path d="m13.4582568 25.911745c.3197489.0061563.1868007-.3581828.197459-.3581828.7589829 0 .4560629 1.5877575.4285757 1.8334486.0033658.1886057.1262167.2619212.2759938.2719951.1077867.0130563.2089267-.0545312.2378483-.1589436.0560963-.1460715.07573-1.5620132-.6731556-2.0360459.19802 0 .7118621.348109 1.0691955 1.1836825-.0134631.1359976-.0241214.4214246-.0241214.5831665.0039268.1891654-.0028048.3520267.2591649.3520267.2417751 0 .2804815-.1858074.2720671-.3486687 0-.1024179-.2210194-1.6638714.242336-1.8334486.4358683.1958812.2804815 1.4159417.2445799 1.8334486-.0196337.2328189.0953637.3486687.2557991.3486687.197459 0 .2518724-.1393556.258604-.3486687.0241214-.1522277.0140241-.5501465-.0033658-.5865245.2625307-.783525.8717365-1.1803245 1.0759271-1.1803245-.7421541.4706747-.729252 1.8866164-.6731557 2.0343668.030998.1049415.1334808.172158.2423361.1589437.1492161-.0067159.2687013-.0699576.2759938-.2686372-.031414-.249049-.3365778-1.8368066.4218442-1.8368066.0100973 0-.1189242.3643392.1980199.3581829.1424846-.0033579.2406531-.0929037.2406531-.2289012 0-.4376547-.7348615-.377771-.894736-.321805-.470087.2053955-.7292519.5439903-.9194184.9682131-.0953637-.4639587-.3679917-1.0146649-.7185936-1.0711906-.3506019.0598837-.6333272.6072319-.7152278 1.0779066-.2008248-.4578025-.5480609-.8422895-.9194184-.9749291-.1604354-.0598837-.8975408-.1158497-.8975408.321805 0 .1354379.0992904.2238643.242336.2289012" fill="#fff"/><path d="m14.3454667 27.7922196c-.1245629.0037393-.2228832.1071088-.2204093.2317282s.1048192.2240037.2294323.2227945.2250113-.1025609.2250674-.2272048c-.002487-.1271656-.1069323-.2285892-.2340904-.2273179" fill="#fff"/><path d="m15.1924631 27.7273076c-.124978.0021874-.2247319.104889-.2232799.2298778.0014519.1249888.1035647.2253454.2285598.2246328.1249952-.0007203.2259508-.1022407.22597-.227238.0000093-.0609719-.0244806-.1193906-.0679666-.1621287s-.1023207-.0662109-.1632833-.0651439" fill="#fff"/><path d="m16.0731769 27.9473981c-.002915.092564.0506309.177638.1353515.2150475.0847207.0374095.1836678.0196708.2501156-.0448395s.0871033-.1628868.0522124-.2486731-.1183483-.141821-.2109611-.1416426c-.1232739-.0015326-.2246075.0968463-.2267184.2201077" fill="#fff"/><path d="m17.1444922 27.7922078c-.1255193 0-.2272727.1017535-.2272727.2272727 0 .1255193.1017534.2272727.2272727.2272727s.2272727-.1017534.2272727-.2272727c0-.1255192-.1017534-.2272727-.2272727-.2272727" fill="#fff"/><path d="m15.7461233 30.5426272h-.0033974c-.1613794-.0131168-.1647769-.2281177-.1511871-.3307707.0179471-.2393065.0569828-.4765322.1166462-.7088756 0 0 .0135899-.0376395.0305772-.0952392.0039637.0102653.0039637.0205306.0073611.0302256v-.3421765l-.0073611.0136871c-.1336335-.3244974-.2746281-.5948169-.3635284-.709446-.1172124-.1710883-.4529948-.1653853-.4529948.1990327 0 .946118-.4224177 1.8414799-1.0413218 1.8888143.4433686-.2281177.7179968-1.5141311.7179968-1.8717055.0073611-.3917921-.590592-.4123227-.5809659.0672947.0107586.4562354.1698731 1.7570764-.6228679 1.8249414-.0101924.0028515-.0141561-.0034218-.0169873 0-.014453-.0881079-.0902657-.152623-.1789329-.1522685-.05376.0012058-.1046956.0244864-.1409947.0644432-.4637534-.2976936-.2406535-.684353-.0656842-.6929074.0734222.0014132.1340964.058104.1409946.1317379-.0169873.15512-.2406535.1140589-.2332923.1248945.0475644.0781303.130236.1140588.2644357.0946688.4643197-.1790724-.1341997-.9894604-.6392889-.2429453.0169873-.577708 1.0826576-.7670457 1.0792601-.1961812.2831218-.1653854.0175536-.564021-.4609222-.5269519.2791581-.2281176.3578659-.4630788.323325-.5782783-.0260175-.1328795-.1497014-.2228181-.2831217-.2058762-.2095101.0404909-.3159639.3649883-.0481307.422588-.1925228-.500148.3816481-.3341924.1789329-.0171088-.2780255.4431186-.8040658.3889406-.9059896 1.0407869-.1545845-.3752536.1132487-.9426963.4529948-1.4154702.2304611-.3244974.3369149-.6016604.3023741-.7333983-.0316173-.0877561-.1104666-.1494235-.2027152-.1585418-.0956291-.0026357-.1762944.0711796-.1828294.1673038s.0633876.1803242.1584809.1908409c-.169873-.3176538.151187-.2805847.1240073-.0844035-.0277459.2902798-.9863962 1.2198593-.8182218 1.9218914-.006795-.0165385-.0237823-.0707165-.0447333-.1214726-.1783667-.4020574.0832378-.841184.1698731-1.364714-.0033975-.2229851-.2893505-.2805848-.4297789-.1112074-.1336334.1345894-.0345408.3376142.0566244.3136618-.0373721-.1420032-.0243485-.2058762.0379383-.2851471.1030563-.0906768.2678332.0039921.237256.1186212-.0385045.2024544-.2474484.6387295-.237256 1.0675907-.1308022-.2463671-.2717969-.4288612-.5050892-.4089009.4297788.0815521.2955791 1.5472081 1.4948829 1.7108826.0259049.0776608.0975987.1304449.1789329.1317379.0537901-.0010725.1047753-.0243759.1409947-.0644432.0101924 0 .0237822 0 .0339746.0062732 1.5679283.145425 1.9631663-1.4456958 2.0282843-1.9794911.1280229.1757504.2277707.370707.2955791.577708-.244051.6273236-.4331763 1.3544487.0407695 1.4188919.002776-.0002369.0053812-.0014479.0073612-.0034217z" fill="#fff"/><path d="m19.3945001 29.2779511c.0101721-.4293569-.199485-.8649859-.2333918-1.0679753-.0344719-.114039.1299761-.2086914.2362174-.1180304.0621625.0809677.0757252.1453997.0384277.2850975.0887228.023378.1853572-.178471.0514253-.3141775-.1407132-.1710585-.4255304-.111188-.428921.1140391.0926786.523439.3498052.9630594.17462 1.3644767-.016922.0398839-.0318225.0806104-.044644.1220217.1650132-.7024803-.7883332-1.631328-.8165889-1.9221274-.029951-.1961471.288773-.2326396.1203692.0843888.0947198-.0105865.1643747-.0945632.1580154-.190505s-.0864767-.1698117-.1817502-.1675775c-.0925226.0087325-.171645.0707761-.2028757.1590844-.0305161.1317151.0723345.4088299.3023357.7327007.3390681.4726916.6035411 1.0406059.4520907 1.415224-.1028506-.6517329-.6244503-.5975644-.9041814-1.0400357-.19892-.3175986.3746702-.4835254.1785758.0165357.2706893-.0570195.1610573-.3814605-.0440788-.4219444-.1349441-.0187507-.261197.0712437-.288773.2058404-.0339068.114039.044644.3512402.3260704.5776076-.4775208-.0370627-.7448195.3615037-.463393.5268602 0-.570195 1.0601528-.3814605 1.081062.1961471-.5086021-.7463853-1.1014061.0638619-.6385782.2429031.134497.020527.2158734-.0165357.2610824-.0940822.0067814-.0102635-.2158733.0302203-.229436-.1248727.0047872-.0747343.0664918-.1327432.1407132-.1322852.1695341.0068423.3955794.3957153-.0689438.6927869-.0363824-.0397328-.0871199-.0629654-.1407132-.064432-.0874484-.0010665-.1627956.0619254-.1780108.1488209-.7792914-.0843889-.6216247-1.3684681-.6148434-1.8206328.0107372-.4801042-.5860226-.4595772-.5758506-.0678532 0 .3580825.2746452 1.6387406.7131732 1.8713801-.6154085-.0513175-1.0369832-.9482343-1.0369832-1.8890561 0-.3677758-.339068-.371197-.4520907-.1989981 0-.0034212.0033907-.0034212.0033907-.0068423l-.0073465.0068423.0039558.002851c-.0100202.01481-.0180044.0309222-.0237348.0478964-.0655531.131715-.1955292.3751883-.3125077.6551541v.342117c.005757.0212224.0091684.0430225.010172.0650022.0623614.2330534.1104865.4697493.144104.7087525.0310812.2503156-.0960693.3141774-.154276.3307131v.1254429c.4289211-.0843889.2915985-.803975.0565113-1.4186453.0653854-.1899269.1528335-.3713721.2605173-.5405449.0825066.5701951.4944743 2.0641061 2.0038923 1.935242.0079101-.0013108.0156715-.0034118.0231696-.0062722v.0034212c.0353341.0394713.0851888.0625612.1378877.0638752.0817846.0009728.1543602-.0527279.1780107-.1317284 1.1974754-.1653566 1.0669342-1.6347492 1.4958553-1.7105851-.2367826-.0199568-.37354.1625056-.5086021.4094" fill="#fff"/><path d="m15.4827396 23.2467532.200424-.1382367.2010033.1382367-.0770416-.2230894.2010033-.1382367h-.2479234l-.0770416-.2230894-.0764623.2230894h-.2479234l.2010033.1382367z" fill="#fff"/><path d="m15.4827396 24.6753247.200424-.1376748.2010033.1376748-.0770416-.2230894.2010033-.1382368h-.2479234l-.0770416-.2230894-.0764623.2230894h-.2479234l.2010033.1382368z" fill="#fff"/><path d="m16.3919412 23.2467532.2006029-.1382367.2011828.1382367-.0771104-.2236513.200603-.1376748h-.247565l-.0771104-.2230894-.0765306.2230894h-.2481447l.200603.1376748z" fill="#fff"/><path d="m17.1061162 23.5064935.2010033-.1382368.200424.1382368-.0764623-.2230894.200424-.1382368h-.2479234l-.0764623-.2230894-.0770416.2230894h-.2479234l.2010033.1382368z" fill="#fff"/><path d="m17.8319292 23.7379496-.0764623.2230894.200424-.1376749.2010033.1376749-.0770416-.2230894.2010032-.1382368h-.2479233l-.0770416-.2230894-.0764624.2230894h-.2479233z" fill="#fff"/><path d="m17.1061162 24.4805195.2010033-.1378074.200424.1378074-.0764623-.2233041.200424-.1378074h-.2479234l-.0764623-.2233041-.0770416.2233041h-.2479234l.2010033.1378074z" fill="#fff"/><path d="m16.3919412 24.6753247.2006029-.1382368.2011828.1382368-.0771104-.2236514.200603-.1376748h-.247565l-.0771104-.2230894-.0765306.2230894h-.2481447l.200603.1376748z" fill="#fff"/><path d="m14.6386944 23.2467532.200603-.1382367.200603.1382367-.0765307-.2236513.200603-.1376748h-.2481447l-.0765306-.2230894-.0765306.2230894h-.2481447l.2006029.1376748z" fill="#fff"/><path d="m13.859363 23.5064935.200424-.1382368.2010033.1382368-.0770416-.2230894.2010032-.1382368h-.2479233l-.0770416-.2230894-.0764624.2230894h-.2479233l.200424.1382368z" fill="#fff"/><path d="m13.2755266 23.961039.2004241-.1376749.200424.1376749-.0764624-.2230894.2004241-.1382368h-.2479234l-.0764623-.2230894-.0770416.2230894h-.2479234l.2010033.1382368z" fill="#fff"/><path d="m14.1368286 24.119408-.0770416-.2233041-.0764624.2233041h-.2479233l.200424.1378074-.0764623.2233041.200424-.1378074.2010033.1378074-.0770416-.2233041.2010032-.1378074z" fill="#fff"/><path d="m14.6386944 24.6753247.200603-.1382368.200603.1382368-.0765307-.2236514.200603-.1376748h-.2481447l-.0765306-.2230894-.0765306.2230894h-.2481447l.2006029.1376748z" fill="#fff"/><path d="m24.0468732 14.217485c.3880353.0719644.7659626.2284586 1.0995269.3638203.1966907.0852457.3976275.1599774.6019882.2238895l-.5054005-1.5380978-.7755091-.2975673h-.0044924c-.1637002-.0659366-.3328304-.1169688-.5054005-.1524962-.2757241-.050832-.4778843-.023417-.6003035.0805317l-.2712317 1.4461432c.1269117-.0959527.3739964-.2044705.819872-.1467847.0466092.0062826.094903.0137075.1431968.0222747" fill="#fff"/><path d="m26.457293 15.3888259-.8802957-1.7502959c-.026408-.0461989-.0704276-.0795762-.1218871-.0924193h-.005643l.6771506 1.6590106c-.8729599-.1774676-1.5123029-.5562165-2.2295182-.6803871-.4875484-.0776775-.7155225.1360774-.7155225.1360774l-.0564292-.0430912c-.1137833-.0834051-.2592088-.1101243-.3950045-.0725746l-.0660221.0215456s-.1348659-.2800927-.6178999-.3793158c-.7155225-.1360774-1.4507951-.0085049-2.3305265-.1502522l1.2414427-1.3086112h-.0045144c-.053115-.0059654-.1063877.0097659-.1478445.0436581l-1.4632095 1.322786c-.0355504.0323184-.0265218.0635028.0197502.0697397l3.1120711.3883877.0665865.1411803.3577612.051029.3526826.0788115.1128584-.1088619 3.0471775.7370861c.0457077.0102058.0648936-.0158757.0434505-.056699" fill="#fff"/><path d="m22.2344124 13.9279614c.4354777.1039767.626841.2904567.7104572.422688l.2710512-1.4313751c-.0780044-.1378821-.2558993-.2333825-.5297564-.2825454-.1745452-.0285912-.3512529-.0416388-.5280729-.0389913h-.0044894-.8316727l-1.0280866 1.2431998c.2137751.0126094.4280473.0143069.641993.0050859.3608404-.0084764.7693813-.018083 1.1577197.0531185.0477005.0084764.0954011.018648.1408569.0293847" fill="#fff"/></g><path d="m23.1201929 18.5836764c.014063-.2036589.2053201-.3754606.4629546-.4346241-.039844-.0550908-.0609621-.121756-.0601897-.1900058-.0104329-.1022132.0376075-.2015115.1238091-.25591s.1955124-.0543985.2817139 0c.0862016.0543985.1342421.1536968.1238091.25591.0007724.0682498-.0203457.134915-.0601897.1900058.2598847.056888.4500167.2332407.4652048.4391751.0464013.0246673.0914671.0518226.135005.0813498.1445678-.0091021.3060113-.0068265.47083-.0068265.2964485.004551 1.0069123-.0432349 1.1942318.0699722.1389426.0836253.1816942.2059344.0967536.3845626-.6322735 1.3084233-1.3500501 1.219678-2.1786434 1.1019199v.0045511c0 .2559958.160881.4681879.3701388.5119917h.082128c.0766628.0082373.1348277.0736406.1348277.1516064s-.0581649.1433691-.1348277.1516064h-1.7235639c-.0766629-.0082373-.1348278-.0736406-.1348278-.1516064s.0581649-.1433691.1348278-.1516064h.0787529c.2115078-.0455104.3707012-.2577025.3707012-.5119917v-.0159287c-.0303761-.009102-.0562521-.0176352-.0866282-.0290128-1.024913-.2719245-2.8092292-1.1041955-2.9082329-1.5678324h.5158317c.3504505.2759066 1.1841064.9204473 1.886695.2531515.0995463-.1189072.2223018-.2157428.3605758-.2844399m1.6065596 1.3368672c.483768.0136532.9208467-.1376688 1.3095486-.8959854-.2542594-.038115-.6930257 0-.9770987-.0045511-.0500644 0-.1023788 0-.1530057 0 .0526648.1028598.0802452.216964.0804405.3327946-.005195.2177928-.0992634.4237057-.2598847.5688797" fill="#fff"/><path d="m7.22260788 36.5814434c.47965357.273691 1.0701256.1949186 1.77365482-.0574981.69009668-.2460919 1.0634093-.6198296.84624995-1.3621301-.30726933-1.06429-.23283068-.8848959-.63972467-1.3529305s-1.59063647-1.4702266-2.11114735-.7831242c-.52051089.6871024-.53674187 2.2912996-.56304726 2.5874148-.03134259.3518884.69625327.9694181.69625327.9694181" fill="#fff" fill-rule="nonzero"/><path d="m7.94563125 36.8170323c-.25707919.0056661-.51112374-.0579392-.73687793-.1844924l-.00782723-.0040232-.00670905-.0063222c-.13037504-.1124913-.25380022-.23323-.36955714-.3615132-.25829864-.2873715-.37626619-.5143949-.36061173-.6896914.00335453-.0362088.00670905-.0954074.01062267-.1724229.02963166-.5506036.09839948-1.8391771.57138789-2.4639226.12433987-.1696235.31838349-.2701055.52498359-.2718533.65860561-.0218403 1.47822855.7511889 1.73820445 1.0506299.04752247.0546006.0883359.10058.12411752.140812.26053499.2913946.26444861.3051884.47075206 1.0241917.01956808.0678197.04081342.143111.0648542.2252992.11181755.3862272.07994955.6971631-.09784039.9506247-.15430827.2201265-.41148873.3891009-.80900027.5310624-.4360886.1551805-.80173212.2327708-1.11817591.2327708m-.63176939-.3511679c.40142516.2247245.92081787.2040338 1.68285475-.0672449.35222541-.1258687.58592417-.2758765.71395532-.4597942.14089016-.20116.16381277-.4597943.06988599-.7827998-.02404078-.0821882-.04528612-.1574795-.0648542-.2258739-.10063583-.3500184-.15095375-.5258897-.20406711-.6425625-.05311335-.1166728-.10454944-.1724229-.22363518-.3046137-.03634071-.040232-.07771322-.0867862-.12635388-.1425363-.21319439-.2381938-.45238518-.4503328-.71283714-.6322171-.3388073-.2362193-.63959662-.3569153-.87049994-.3494436-.14795483.0005418-.287075.0724753-.37570711.1942631-.4360886.5747428-.50317916 1.8684889-.53113355 2.3564456-.00447271.0770155-.00782724.138513-.01118176.1781703-.01006359.1149485.10287218.3092116.30973472.5402583.10849248.1196132.22347527.2328266.34439818.3390982" fill="#20603b" fill-rule="nonzero"/><path d="m23.8178465 36.5815072c-.4793358.2735894-1.0688572.1948462-1.7724796-.0574767-.6896395-.2460006-1.0627048-.6195995-.8456893-1.3616244.3070657-1.0638948.2326764-.8845673.6393008-1.3524281s1.5895826-1.471405 2.1119858-.7845578c.5224033.6868473.5363863 2.2904488.5626742 2.5864541.0313219.3517578-.6957919.9690581-.6957919.9690581" fill="#fff" fill-rule="nonzero"/><path d="m23.0982772 36.8181818c-.3147666 0-.6804101-.0775903-1.1181759-.2327708-.3975116-.1419615-.654692-.3109359-.8090003-.5310624-.17779-.2534616-.209658-.5643975-.0978404-.9506247.0240408-.0821882.0452861-.1574795.0648542-.2252992.2063035-.7190033.2102171-.7327971.4707521-1.0241917.0357816-.040232.076595-.0862114.1241175-.140812.2599759-.299441 1.0795988-1.0724702 1.7382044-1.0506299.2066624.0014828.4008138.1020206.5249836.2718533.4729884.6230213.5417562 1.913319.5713879 2.4639226.0039136.0752913.0072682.1350646.0106227.1724229.0156544.1770207-.1023131.4023199-.3606117.6896914-.115799.1280398-.2390232.2487645-.3689981.3615132l-.0072681.0063222-.0078273.0040232c-.225701.1267531-.4797486.1905573-.7368779.1850672m.3477527-3.9588287c-.2281079 0-.5216291.1201212-.8503728.3494436-.2603374.1820378-.4995119.3941622-.7128371.6322172-.0486407.0574742-.0894541.1023042-.1263539.1425362-.1196448.1339151-.1738763.1954125-.2236352.3046137-.0497588.1092011-.1034312.2925441-.203508.6425625l-.0648542.2258739c-.0944859.3253045-.0715632.5816398.0693269.7827998.1280312.1827682.3617299.3327761.7145144.4597942.7614778.2712787 1.2808705.2919694 1.6822957.067245.121062-.1061136.2360534-.2193354.3443982-.3390983.2068625-.2298972.3197983-.4276087.3097347-.5402583-.0033545-.0396572-.0067091-.1011547-.0106227-.1781703-.0262771-.4873819-.095604-1.7817028-.5316926-2.3564456-.0886321-.1217878-.2277523-.1937212-.3757071-.1942631h-.0201272" fill="#999" fill-rule="nonzero"/><path d="m30.4739104 30.9969326c.0756114-.4503171-.1120168-1.6251317-1.2170627-1.7037947-1.105046-.078663-1.7424217.4805283-1.6074415 1.0750608.2204169.8915911.498068 1.7675051.8311649 2.6220996.313087.7718093.6866631 1.2209864 1.2293846.1088742.3272411-.6713637.5833353-1.3762713.7639547-2.1028099" fill="#fff" fill-rule="nonzero"/><path d="m29.1299581 33.893825h-.0123261c-.2493227-.0085459-.4639084-.2660614-.6953023-.8357861-.3351222-.8595834-.6145502-1.740552-.8364918-2.6372554-.0568234-.2559419.0137764-.523931.188813-.7167136.1644652-.1785902.373043-.3090347.6039773-.3777274.2965988-.0907943.6074597-.123468.916051-.0962835.4011575.0284862.7238764.1937064.9591922.4899632.3462505.4369788.3983561 1.0323411.3484916 1.3268887v.0045578c-.1832209.733343-.4418109 1.4450485-.7714998 2.1233638-.2403584.4916724-.4639084.7212714-.7020257.7212714m-.038659-4.4780357c-.5092907 0-.9367812.1492678-1.1653737.4130503-.1365968.1463577-.1921166.3525081-.1479128.5492146.2192941.8862877.4955433 1.7569882.8269671 2.6064903.1899335.4688833.3647396.7087374.5188154.7144347.1988979.0068367.4179658-.3805761.5311415-.6118843.3228862-.6637928.5763978-1.3601996.7563724-2.0777858.0409001-.2506789-.0061631-.7879292-.3098326-1.1707842-.2010165-.2522935-.4994591-.4039275-.818563-.415899-.064992-.0045578-.1288634-.0068366-.1916143-.0068366" fill="#999" fill-rule="nonzero"/><path d="m.50354525 30.9969326c-.07616716-.4503171.11201054-1.6251317 1.21699445-1.7037947 1.10498392-.078663 1.74232386.4805283 1.60735117 1.0750608-.22091957.8914406-.49854439 1.7673208-.83111817 2.6220996-.31306944.7718093-.68718462 1.2209864-1.22931561.1088742-.3271856-.6711818-.58326479-1.3758964-.76391184-2.1022399" fill="#fff" fill-rule="nonzero"/><path d="m1.91337303 33.8938261c-.23858321 0-.46204494-.2277791-.70174826-.7209208-.32988101-.6779061-.58856199-1.3892806-.77175507-2.1223318v-.0045556c-.04928479-.2944045 0-.8894774.34835389-1.3262438.23522288-.2961128.56005447-.4612527.95881326-.4897251.30865402-.0271607.61957349.0054962.91624913.0962367.2305727.0697428.43862389.2008744.60261862.3798217.17629898.1928748.24756149.4618209.19041852.718643-.22156951.8960977-.50070233 1.7764551-.83560128 2.6354042-.23186256.5694478-.44804358.8274076-.69502761.8359493h-.0123212m-1.28084459-2.8853917c.18000965.7172038.43341705 1.4132609.75607355 2.0767759.11201089.2277791.32819192.6115869.5253311.6115869h.00504049c.15401498-.0056945.32875198-.245432.5191705-.7140875.33104096-.8491811.60717558-1.7194415.82664041-2.6052234.0442481-.1967116-.0114906-.402875-.14841444-.5489477-.25706501-.2955434-.76111404-.4475859-1.35645195-.4060162-.31895918.0120397-.61725539.1635855-.81823959.4156968-.30298947.3826689-.3505941.9196581-.30915007 1.1702152" fill="#999" fill-rule="nonzero"/><path d="m9.90423246 35.1881227c-.15492522-.5692762-.26099914-1.1513696-.317008-1.7396198-.05610762-.6205527-.06676806-1.216928-.06676806-1.216928s-.21938076-.6407004-1.65012484-.6499109c-.90782115-.0069078-1.94356765.3079737-3.09770121.491031-.58097036.0984082-1.16981739.1392756-1.75841253.1220382.08343028-.6946867.20462455-1.3840486.36301624-2.0648631-.12051438.398357-.45250163.690885-.85451892.7529526-.60147359.1111008-1.04584587-.438071-1.04584587-.438071s-.15317378.6061613-.30971401 1.3239992c-.69180684-.3868381-.71593312-.8980169-.71593312-.8980169s.02749273.8306656-.03310349 1.3239992c-.10940984.8888064-.37648207 1.3965313-.37648207 1.3965313s-.20872031 1.0258116 1.57101311 1.4523696c.9981544.2394711 2.11806232.1652121 3.28397848-.0201478.9089433-.143913 1.95422809-.3148816 2.88449228-.4967876 1.73540842-.3402102 2.12311201.661424 2.12311201.661424" fill="#999" fill-rule="nonzero"/><path d="m27.6405701 30.2948052c-.03-.0654054-.048-.1-.048-.1.0113855.0339312.0274298.067357.048.1" fill="#999" fill-rule="nonzero"/><path d="m3.3722909 30.2948052c.02001525-.0326916.03572123-.0661086.047-.1 0 0-.017.0345946-.047.1" fill="#999" fill-rule="nonzero"/><path d="m30.9985472 33.6113396s-.266471-.5017288-.3758643-1.3811764c-.0611481-.4875075-.0336595-1.3083632-.0336595-1.3083632s-.0246836.5216387-.7472408.9101657c-.1576386-.7167555-.3135942-1.3259976-.3135942-1.3259976s-.4448663.5426863-1.0456883.4328975c-.4020738-.0610752-.7341291-.3502513-.8543901-.7440604.1590768.6725483.2810017 1.3535776.3652055 2.0399088-.5766063.0136898-1.1532089-.0274475-1.7222441-.1228724-1.1545206-.1808954-2.1878671-.4920583-3.0972344-.485232-1.4305284.0091016-1.6498761.6422356-1.6498761.6422356s-.0117808.5893323-.067319 1.2025564c-.0564679.5809926-.163091 1.155842-.3186432 1.7179377 0 0 .3876452-.9909429 2.124475-.6547504.929563.1797577 1.9752513.3487072 2.8840576.4909206 1.1651794.1831708 2.2849186.2565529 3.2834835.0199099 1.7772213-.4215205 1.5707764-1.4352175 1.5707764-1.4352175" fill="#999" fill-rule="nonzero"/><path d="m24.5829414 35.0296913s-.0157741.5717243-.9751789.9326642c-1.137427.4283683-4.2139446.6085549-5.8026242.6708836-.8309584.0322976-1.5182595.0436301-1.9886664.0464632s-.1228128 0-.3430872 0-.3430872 0-.3430872 0c-.4709703 0-1.1582714-.0141656-1.9897931-.0464632-1.589243-.0623287-4.56322882-.2759462-5.70403602-.7043145-.95771469-.3609399-.9120824-.9938597-.9120824-.9938597s-.10985551.7439782-.29632819 1.5429191c-.15267099.6550181-.2433722.6986482-.21464076 1.2607399s.30196181 1.0442893.84954926 1.3196689c.771242.3870046 3.47988451.8323716 6.16148561.8981001 1.8174044.0441967 3.3407342.0651618 4.0398659.0118991.2529493 0 .5368836-.004533.8568729-.0118991 2.6810378-.0657285 5.5209435-.5099622 6.2938756-.8981001.5487142-.2753796.850676-.6635175.8788441-1.2256092s-.0619698-.6057218-.2152041-1.26074c-.1864727-.7972409-.2952015-1.5423523-.2952015-1.5423523" fill="#999" fill-rule="nonzero"/><path d="m8.61264197 37.2094495c.15600087.0217287.31237052.0425367.46910898.062424.07528975.0091388.14943896.0259843.22127782.0502707.05941379.0199135.11444074.0510458.162086.0917026.04263156.0379378.07497925.0860118.09404307.1397635.02017344.0612234.02548255.1263589.01548945.1900343-.00609862.0682742-.02993371.1337771-.06914932.1900343-.03663712.0475178-.08428806.0854338-.13885183.110485-.05992735.0270352-.12415961.0433046-.18974573.048061-.07379124.0053976-.1479433.0031761-.22127782-.0066291l-.20025642-.025964-.0813196.5767318-.26332061-.0359076c.06785854-.4640371.13571707-.9282584.2035756-1.3926638m.35127853.6667772c.04051296.005428.08139267.0076446.122256.0066291.03649161-.0006111.07267819-.006758.10731974-.0182301.03087376-.0112572.05831305-.0302858.07966002-.0552425.02317566-.0283315.03725027-.0629878.0403832-.0994365.00595159-.034858.00112748-.0706995-.01382987-.1027511-.01450188-.0280319-.03604107-.0518253-.06251098-.0690531-.02947102-.019093-.06204103-.0329253-.09625585-.0408795-.03765935-.0097973-.07590793-.0171781-.11451127-.022097l-.18753295-.0243067c-.01880862.1331345-.03706404.2662689-.05531946.3994034l.18089462.0237543" fill="#fff" fill-rule="nonzero"/><path d="m10.2747778 37.4025974.2279257.0228144c.1629668.4919.3314418.9821307.5054251 1.4706921-.1247893-.0105725-.1868991-.016137-.3111185-.0278224-.0379876-.1112896-.0742658-.2225792-.1088345-.3338688-.2195684-.021145-.4389468-.0432175-.65813531-.0662173l-.17607256.3071593-.30428073-.0344998c.27958879-.4421907.5544291-.8873491.824521-1.3354753m.2427408.9058974c-.0569814-.1984664-.1139628-.3973039-.1709442-.5965123-.0995275.182886-.1998148.3657719-.3008619.5486578.1566989.0166934.3133978.032274.4700967.0478545" fill="#fff" fill-rule="nonzero"/><path d="m11.3306608 37.5324675c.1722034.0140862.3445968.027431.5171804.0400345.0685449.0047454.1363907.0164863.2024245.0350301.0613306.0171353.1191912.044406.171063.0806249.1059471.0749357.1625388.1995258.1482546.3263917-.0027676.0923807-.0422259.1801011-.1100505.2446549-.0734321.0635797-.1652678.1034024-.2628668.1139869.1197441.2179652.2404385.4355597.3620833.6527835l-.3290112-.0211293c-.103398-.2072152-.2056557-.4149864-.3067729-.6233137l-.1961522-.0150129-.0513189.5982922-.2725603-.0216853.1282972-1.4106575m.4322191.6455551c.0379636.0026995.0760784.0026995.114042 0 .0361482-.0019246.0717541-.0094318.1054888-.0222413.0309397-.0117688.0583784-.0308807.0798294-.0556034.0235746-.0294435.0367736-.0655207.0376339-.1028662.0039052-.0335591-.0032869-.067457-.0205276-.0967499-.0165519-.0255898-.0387616-.0472474-.0650039-.0633878-.0290101-.0173284-.0608221-.0297368-.0940846-.0366982-.0341858-.007504-.0688603-.012706-.1037783-.015569l-.2406285-.0177931-.0342126.3964521.2195308.016681" fill="#fff" fill-rule="nonzero"/><path d="m12.721947 37.5974026c.1728188.0096282.3485179.0186901.5230649.0271856.0692562.0031453.1379887.0133955.2050783.0305837.061775.015738.1202662.0419994.1728189.0775921.108972.0733229.1694705.1985556.1584172.3279258.000371.0941255-.0368647.1846308-.1036913.2520327-.0719666.066839-.1634309.1098207-.2615325.1229014.1267338.2189948.2548118.4374232.3842339.6552852-.1330705-.0045309-.1998938-.0073628-.3329643-.0130264-.1098359-.208045-.2189038-.4166564-.3272036-.6258342l-.1987416-.0101946-.0345638.6105423-.2753579-.0152919.0881376-1.4397017m.4550895.6462233c.0384257.0015545.0769139.0006085.1152125-.0028318.0364926-.0032253.0722524-.0120148.1059956-.0260528.0313851-.0133667.0587568-.0344274.0794966-.0611675.0226623-.0305876.0347742-.0675024.0345638-.1053441.0030469-.034234-.0050201-.0685367-.0230425-.0979812-.0176422-.0256474-.0408601-.0471204-.0679754-.0628666-.0295604-.0169567-.0619321-.0286521-.0956264-.0345483-.0347024-.0072626-.0699685-.0116203-.1054195-.0130265l-.2436745-.01246-.0224665.4049515.2217842.0113273" fill="#fff" fill-rule="nonzero"/><path d="m14.4995352 37.7272727.2270126.0038971c.2054464.477304.4161898.9521954.6322301 1.4246744h-.3110073l-.1379101-.3262443c-.2190672-.0027837-.4387019-.0072375-.6583366-.0122481-.0482402.1068923-.0976154.2137846-.1469907.320677l-.3041968-.0094645c.2391199-.4657981.4721862-.9328953.6991988-1.4012916m.3217904.8857589c-.0756709-.1933712-.1492608-.386928-.2207698-.5806704-.0821029.1911443-.1649625.3817319-.2485788.5717627.1566387.0033403.3127099.0066807.4693486.0089077" fill="#fff" fill-rule="nonzero"/><path d="m15.6185182 37.7499485h.4069622c.1296912.33184.2616185.6636801.3957819.9955201h.0061491c.1222377-.3351584.2422394-.67087.360005-1.0071345.1363994-.0033184.2727988-.0066368.4086392-.0110614.0156524.4697381.0309322.9391074.0458392 1.408108l-.2655316.0071899c-.0108077-.3771916-.0210562-.7543831-.0307458-1.1315746h-.0039131c-.1397535.381616-.2821157.7619416-.4270867 1.1409767-.0743489 0-.1118028 0-.1867107 0-.1546605-.3749793-.3067123-.7508803-.4561554-1.1277031h-.0039131l.0050311 1.1315746h-.2543513c0-.4697381 0-.9391074 0-1.408108" fill="#fff" fill-rule="nonzero"/><path d="m18.0296348 37.6088427.227178-.0114401c.2404301.4747646.4865397.9468599.7383287 1.4162857l-.310666.0188762c-.0545227-.1079184-.1084775-.2160274-.1618643-.3243271-.2192269.0122028-.438643.0230709-.6582485.0326043-.040892.1144011-.0817841.2259422-.1232441.3386273-.1215403.005148-.1823104.0074361-.3044186.0114401.2033244-.4919248.4011586-.9859469.5935027-1.4820664m.3856348.8826046c-.0878422-.1929566-.1754951-.3862944-.2629586-.5800137-.0681535.201346-.1370641.4025013-.2067321.6034659.1567529-.0074361.3135057-.0148721.4696907-.0234522" fill="#fff" fill-rule="nonzero"/><path d="m19.3250117 37.8119343c-.148423.0113144-.296846.0214974-.445269.030549-.0055659-.0888184-.0083488-.1335105-.0144713-.2228946.3833024-.0252689.7664193-.0543093 1.1493507-.0871212l.0194805.2234603-.445269.0367719c.0319109.4046799.0640074.8089827.0962894 1.2129083l-.2666048.020366c-.0296846-.4046799-.0595548-.8093598-.0896104-1.2140397" fill="#fff" fill-rule="nonzero"/><path d="m20.4980831 37.6300776c-.1487402.0140314-.2974803.0280628-.4440005.0409718-.008325-.0881175-.01221-.1324568-.01998-.2211355.3814704-.0344238.7627558-.071841 1.1438561-.1122516l.0249751.2205743c-.1481852.0162764-.2963703.0325529-.4440005.0477069l.1237651 1.1988462-.2647352.0263791z" fill="#fff" fill-rule="nonzero"/><path d="m21.810474 37.3014702.2290983-.0287429c.2791182.4575874.5630092.9123005.8516731 1.3641393l-.3115737.0425396c-.0630021-.1038578-.1256223-.2082904-.1878607-.3132979-.2199344.0287429-.4400597.0561445-.660376.0822047l-.0927848.3483643c-.1225676.0143715-.1832787.0212698-.3058463.0344915.1657145-.5085582.3249378-1.0184577.4776701-1.5296986m.4581967.8553895c-.1042398-.1866374-.207525-.373658-.3098556-.5610619-.0530744.2069491-.1069125.4135149-.1615143.6196975.1569324-.0189703.3144375-.0379407.4713699-.0574858" fill="#fff" fill-rule="nonzero"/><path d="m1.6295094 33.0519481c.12435293.0093882.24928156.0158425.3742102.0205366.09249708.3188077.18576178.6376154.27979409.9564231h.00575708c.14008894-.3168518.27941028-.6342904.41796401-.9523157.12665576-.0023471.25292771-.00665.37881586-.0129088-.03262345.4459396-.06563071.891488-.09902178 1.3366453-.09614323.0046941-.143927.0064544-.23949452.0093882.02648256-.3579252.05315703-.716046.08002341-1.0743624h-.00402996c-.16273346.3602723-.32623453.7203489-.49050322 1.08023-.06735783 0-.1007489 0-.16810673 0-.10823311-.3618369-.2160824-.7240651-.3235479-1.0866844h-.00345425c-.02686637.3579252-.05354084.7158504-.08002341 1.0737756-.09153757-.0041073-.1370185-.0070411-.2302832-.0140823.03339107-.4451572.06659023-.8905101.09959749-1.3360585" fill="#fff" fill-rule="nonzero"/><path d="m3.76693187 33.01374.20645602-.026727c.17946086.3968224.35987225.7936449.54123418 1.1904673l-.27261321.038977-.1140641-.2733955c-.19314855.0267271-.38686742.0515981-.58115661.0746131-.04277404.1018968-.0861184.2032369-.12946276.3051338-.10664994.0116931-.15968975.0172612-.26633969.0278407.20683625-.4454509.41310217-.8909017.61879777-1.3363525m.27945705.7461301-.19162769-.4899959c-.07604274.1815212-.15094483.3626712-.22470629.54345.13858789-.0167044.2777461-.0345224.41633398-.0556814" fill="#fff" fill-rule="nonzero"/><path d="m4.74636549 32.8725685.47902437-.0702625c.06222017-.0094549.12534034-.0122826.18820908-.0084316.05566987.0028032.11023692.0159769.16065199.038785.04571727.0218609.08396275.055796.11022837.0978055.02967752.051411.04293086.1100534.03811087.1686302-.000903.0875193-.03320077.1720736-.09146609.2394548-.06268103.0698396-.14363069.1224175-.23452845.1523293l.35179267.5160083-.29316056.0421575-.30547331-.4991453-.17941426.0264188-.01583068.5441133-.24508223.0354124c.01211731-.427946.02462549-.8557045.03752456-1.2832757m.42977338.4873412c.03548846-.0051365.07055809-.0126495.10495148-.022484.03366673-.0094169.06582421-.0232238.09557035-.0410333.02802215-.0173962.05197892-.0401719.07035853-.06689.01991249-.0296713.03049665-.0642099.0304887-.0994918.00233073-.0290522-.0057347-.0579986-.02286652-.0820667-.01630459-.0200021-.03799687-.0353563-.06273636-.0444059-.02815954-.00985-.05797853-.0146146-.08794817-.0140526-.03218287-.0000547-.06432488.0022-.09615667.0067453l-.2222157.0326018-.01231275.3608686.20110815-.0297914" fill="#fff" fill-rule="nonzero"/><path d="m5.97768183 32.6311877.22525193-.0337851c-.01149611.4430896-.02299223.8863733-.03448834 1.3298513l-.22525192.0337851z" fill="#fff" fill-rule="nonzero"/><path d="m7.2133633 32.7509213c-.02823669-.0316984-.06461485-.0555166-.10540908-.0690153-.04422129-.017145-.09207422-.0235015-.13939342-.0185163-.02888583.0025008-.05733369.0085333-.08467287.0179552-.02748716.0092646-.05347717.0223012-.07718479.0387159-.02318297.0162266-.04277282.0368361-.05760059.0605988-.01582741.0247774-.02439281.0533014-.02476825.0824817-.00402216.0493707.0227744.0962678.06796869.1189533.02537233.0134274.05250111.0234318.08064083.0297383.03110432.0078554.06624068.0145886.10368106.022444s.0875529.0196385.13363337.0325438c.04477601.0122313.08733123.03116.12614529.0561101.03820236.0249994.06978438.0584561.09216094.0976314.02525672.0477319.03661154.1012904.03283234.1548637-.00093505.0635205-.01648491.1260278-.04550447.1829187-.02726787.0519508-.06486001.0981064-.11059313.1357862-.04710433.0384414-.10070015.0686277-.15840162.089215-.06112733.0226102-.12503148.037324-.19008195.0437658-.08588495.0091156-.17275742.0028401-.25632262-.0185163-.07723586-.017687-.14761887-.0566425-.20275408-.1122201l.17625781-.1722577c.03407987.040647.07918057.0711672.13017733.0880927.05161866.0188639.10698562.0259655.16185766.0207607.02941031-.0030663.05838497-.0092758.08640088-.0185163.02899333-.0088672.05611326-.0227415.08006482-.0409603.02334269-.0174129.04291864-.039152.05760059-.0639655.01595499-.0271575.02429807-.0579247.02419225-.0892149.00251865-.0291963-.00541915-.0583415-.02246423-.0824817-.01712897-.0220462-.03945401-.039752-.06508867-.0516213-.03115599-.0148282-.06403354-.0259433-.097921-.0331049l-.11923322-.0258106c-.04083121-.0080552-.0812059-.0181686-.12096124-.0302994-.03929613-.0121391-.07599208-.0311531-.10828911-.05611-.03240103-.0248987-.05842805-.0567827-.07603278-.0931427-.02109263-.0461392-.03019281-.0966294-.02649627-.1470082.00055952-.0608109.01701306-.1204806.04780849-.17338.0296093-.0500944.06869996-.0942661.11520118-.1301753.04861264-.0366528.10284484-.0656234.16070565-.0858483.05820964-.0212374.11900864-.0350064.18086585-.0409603.06972142-.0067532.14011955-.0014342.20793813.0157108.06667274.0152671.12878859.0454253.18144186.0880927l-.16128166.1750633" fill="#fff" fill-rule="nonzero"/><path d="m7.90226557 32.6187481c-.13391549.0051475-.267459.0122747-.40063051.0213818l.00557981-.2108475c.34427441-.0219757.68799085-.0314787 1.03338122-.0243515l-.00557981.2102536c-.13335751 0-.26671502-.0035636-.40007254 0l-.03013098 1.1451099c-.09318287 0-.13949531 0-.23267817.0059394l.03013098-1.1451099" fill="#fff" fill-rule="nonzero"/><path d="m22.5934944 32.4675325c.0933758 0 .1397772.0034062.233153.0085156l-.0108843.5109379c.20451.0130573.4078744.0323594.6112388.0567708.00401-.1703126.0074471-.3406252.0108842-.5109378.0933758.0119219.1397772.0181667.2325801.0317917-.0091657.4223753-.0181405.8445613-.0269243 1.2665581-.0928029-.013625-.1392043-.0198698-.2325801-.0317917l.0120301-.5614639c-.2033644-.0244115-.4067288-.0437136-.6112388-.0567709l-.01203.561464c-.0933758-.0051094-.1397772-.0068125-.233153-.0085157.0091657-.4223753.0181405-.8445613.0269243-1.2665581" fill="#fff" fill-rule="nonzero"/><path d="m24.0250232 32.5324675c.0930927.016572.1396391.0254498.2298586.0432055-.0084281.4395518-.0174309.8796954-.0270084 1.3204309-.0930927-.0177557-.1396391-.0266335-.2327319-.0432055.0091944-.4399463.0181972-.88009.0270084-1.3204309" fill="#fff" fill-rule="nonzero"/><path d="m25.6608655 34.1218287c-.0688245.0203913-.1399164.0317323-.2115531.0337482-.0885951.0019068-.1771182-.0063953-.2638905-.0247487-.096802-.0189763-.1898727-.0541345-.2754598-.1040571-.0804701-.0473388-.1525485-.1081882-.2132058-.1799906-.0587208-.0704035-.1049571-.1507293-.1366281-.2373627-.0326645-.0898981-.0480042-.1853942-.0451754-.2812353.0000343-.0904853.0197942-.1798284.0578466-.2615489.0340615-.0709689.0850156-.1320807.1481973-.1777408.0650593-.0457614.1394843-.0757709.2176133-.0877454.0898752-.0140118.1814784-.0115357.2705015.0073121.095929.0184404.1887205.05103.2754598.096745.074366.0380729.1416663.089083.1988819.1507421l-.157563.1389303c-.0370813-.0453186-.0818736-.0834282-.1322207-.1124941-.0570422-.03617-.1201926-.0611587-.1862108-.0736837-.0595671-.0129405-.1211345-.0129405-.1807016 0-.0512247.0116238-.0990028.0355318-.1393827.0697464-.0392619.0350933-.0703233.0787222-.0909017.1276808-.0222979.0555446-.0340754.114903-.0347079.1749284-.0016957.064892.0076238.1295939.027546.1912401.0188751.0594081.047774.1149913.0853925.1642414.0384226.0497174.0852554.0920078.1382808.1248685.0573107.0351497.1204093.0593555.1862108.0714338.0823989.0189238.1677384.0202642.2506684.0039373l.0066111-.3189209c-.1057766-.0196865-.1586649-.0303734-.2638905-.0511848 0-.0736837 0-.1124942.0038564-.183928.1597667.0309359.3195334.0613093.4804019.0899953-.0044074.2165513-.0093656.433665-.013773.6502162" fill="#fff" fill-rule="nonzero"/><path d="m26.0999879 32.987013c.0928029.0136193.1392044.020429.2325801.0317784l-.0108843.5107253c.2033644.0238338.4067287.0431279.6112388.0567472.0034371-.1702417.0074471-.3404835.0108843-.5107252.0933757.0051072.1397772.0068097.2331529.0090796-.0091657.4214428-.0181405.8434532-.0269243 1.2660311-.0933757 0-.1397772-.0039724-.2331529-.0085121l.01203-.5617978c-.2045101-.0130519-.4078744-.0317784-.6112388-.0567472l-.01203.5617977c-.0933757-.0119169-.1397772-.0181591-.2325801-.0317784.0091657-.4221996.0181405-.8443991.0269243-1.2665986" fill="#fff" fill-rule="nonzero"/><path d="m29.276117 8.7012987c-.648369-.33939612-3.0928267-1.58384856-5.62782-2.51718789-.0073103-.0056566-.0562332-.04864678-.1124664-.24040559-.0268673-.08345752-.0469892-.16896167-.0601696-.25567841.021931-.03563659.1355221-.13179882.4273725-.13179882.0790727.00044212.1580083.00668091.2361794.01866678.0821005.01187887.1816333.03111131.2867894.05147508.2899388.06536365.585331.10324006.8822992.11313204.5971967 0 .9638372-.24775917 1.090362-.73535826.1434744-.55322179.2244004-1.12096893.2412404-1.69245532.41917.19007721.828339.40172541 1.2258841.63410509 1.1553159.67649271 2.250152 1.452467 3.2722107 2.31920682-.7400291.14480901-1.891123.36654781-1.9040566.36937611l-.0899732.0169698z" fill="#fff" fill-rule="nonzero"/><path d="m26.7098372 3.43525662c.2330294.10954787.6030689.29555103 1.078112.57056183.4930116.28528091 1.0011842.61620678 1.5099183.97623129.5255796.37200631 1.0534053.7788169 1.5722467 1.21244389-.7299717.14378158-1.6778118.32864361-1.6896037.33092586l-.1796853.03480427.0117918.18143866.1123034 1.79270528c-.3093957-.16089844-.8175683-.42050407-1.4515206-.72632521-1.7597932-.84842545-3.1360705-1.40358211-3.9895759-1.72252617-.03571-.06362308-.0630819-.13171644-.0814199-.20254945-.0202146-.06789686-.0342525-.1300881-.0426753-.17116855.0398677-.02567528.132518-.06675573.3150109-.06675573.0736776.00040873.1472338.00612871.2201145.01711685.0797354.0119818.1780008.03081034.2807584.05135057.2962451.06655182.5979749.1047562.9012342.11411236.2903041 0 .5244566-.05363281.7153722-.16318068.2415973-.14210579.4136531-.38045032.4744816-.65728723.1315586-.51482565.211514-1.04185611.2386446-1.57303897m-.2027075-.31723237c-.0001934.62097443-.0786963 1.23936418-.233591 1.8400619-.134764.52548745-.5429866.66470453-.9877078.66470453-.4166453 0-.8664202-.12267079-1.1522322-.16432181-.0831021-.01255388-.1669832-.01903687-.2509979-.0193991-.3964308 0-.5323178.16831574-.5323178.22822473 0 .06903799.1044421.55230386.2380831.60536611 2.9693001 1.10631939 5.7768834 2.62458442 5.7768834 2.62458442l-.1392562-2.16242934s1.3970535-.27215799 2.1113027-.41422789c-2.7660311-2.38494845-4.8256742-3.19514625-4.8256742-3.19514625" fill="#999" fill-rule="nonzero"/><path d="m24.533241 25.7792208-9.6290085-5.50705.8492203-1.441002 9.6053251 5.4764867s-.2108953.4527893-.3896489.7770997c-.1787536.3243103-.435888.6944656-.435888.6944656" fill="#fff" fill-rule="nonzero"/></g></svg>